
<svg version="1.1" 
xmlns="http://www.w3.org/2000/svg" 
xmlns:xlink="http://www.w3.org/1999/xlink"
width="2840px" height="2840px" 
viewBox="0.00 0.00 2840 2840"  >
<g stroke-linecap="round" transform="translate(5.00, 0.00)">

<path d="M1414.94,266.46 C1430.51,266.76 1461.78,267.76 1477.47,268.46 C1493.26,269.54 1524.71,272.07 1540.38,273.53 C1555.89,275.35 1581.50,278.52 1602.14,281.90 C1617.56,284.72 1648.45,290.76 1663.92,293.98 C1679.28,297.57 1709.78,305.08 1724.93,309.00 C1739.90,313.18 1769.62,322.65 1784.48,327.53 C1799.34,332.82 1828.96,343.76 1843.72,349.42 C1858.21,355.38 1891.90,369.66 1901.13,374.00 C1915.16,380.84 1943.16,394.94 1957.13,402.19 C1970.99,409.82 1998.43,425.34 2012.01,433.24 C2025.28,441.40 2051.48,458.25 2064.42,466.93 C2077.25,475.99 2102.77,494.50 2115.46,503.94 C2127.86,513.64 2152.31,533.25 2164.37,543.17 C2172.15,549.77 2199.13,574.48 2210.58,585.19 C2221.85,596.26 2244.11,618.65 2255.09,629.97 C2265.71,641.46 2286.67,664.57 2296.69,676.45 C2306.55,688.60 2326.05,713.22 2335.69,725.70 C2345.05,738.44 2363.38,764.03 2372.35,776.88 C2384.00,794.26 2397.52,816.24 2405.62,829.58 C2413.45,843.23 2428.83,870.79 2436.37,884.70 C2443.52,898.69 2457.41,926.71 2464.16,940.76 C2470.36,955.05 2482.44,983.91 2488.32,998.47 C2493.90,1013.28 2504.66,1042.94 2509.85,1057.80 C2514.63,1072.66 2522.38,1097.28 2527.88,1117.46 C2531.72,1132.66 2539.06,1163.27 2542.56,1178.68 C2545.68,1194.14 2551.52,1225.00 2554.24,1240.41 C2556.66,1255.77 2560.40,1286.74 2562.13,1302.28 C2563.49,1317.99 2565.84,1349.48 2566.82,1365.25 C2567.42,1380.92 2568.42,1417.49 2568.32,1427.69 C2567.92,1443.30 2566.72,1474.62 2565.93,1490.34 C2564.76,1506.12 2562.03,1537.52 2560.49,1553.15 C2558.57,1568.62 2554.14,1599.45 2551.62,1614.83 C2548.70,1630.26 2542.46,1661.16 2539.15,1676.63 C2535.48,1691.94 2527.80,1722.33 2523.79,1737.42 C2521.02,1747.23 2509.74,1782.04 2504.76,1796.90 C2499.37,1811.76 2488.25,1841.31 2482.51,1856.00 C2476.47,1870.43 2464.16,1899.09 2457.51,1913.15 C2450.57,1927.16 2436.27,1955.13 2428.92,1969.08 C2421.22,1982.89 2405.55,2010.19 2397.59,2023.69 C2386.63,2041.50 2372.25,2062.94 2363.47,2075.85 C2354.31,2088.64 2335.63,2114.07 2326.11,2126.71 C2316.36,2139.02 2296.64,2163.31 2286.67,2175.28 C2276.23,2186.85 2255.00,2209.83 2244.20,2221.23 C2233.05,2232.46 2210.53,2254.57 2199.17,2265.46 C2187.64,2275.98 2168.47,2293.26 2152.40,2306.65 C2140.17,2316.46 2115.38,2335.85 2102.81,2345.43 C2090.04,2354.69 2064.40,2372.82 2051.51,2381.70 C2038.54,2390.28 2011.93,2406.54 1998.51,2414.57 C1984.78,2422.34 1957.11,2437.56 1943.18,2445.00 C1929.18,2452.05 1896.32,2468.16 1887.00,2472.31 C1872.64,2478.42 1843.65,2490.35 1829.02,2496.16 C1814.18,2501.64 1784.48,2512.21 1769.62,2517.30 C1754.76,2521.98 1724.87,2530.76 1709.84,2534.86 C1694.59,2538.61 1663.89,2545.77 1648.44,2549.18 C1632.99,2552.20 1602.16,2557.84 1586.77,2560.46 C1576.69,2562.02 1540.34,2566.23 1524.75,2567.86 C1509.00,2569.13 1477.50,2571.29 1461.75,2572.18 C1446.12,2572.68 1414.94,2573.39 1399.39,2573.18 C1383.75,2572.68 1352.37,2571.29 1336.62,2570.40 C1320.87,2569.13 1289.53,2566.23 1273.94,2564.59 C1253.18,2562.02 1227.71,2557.84 1212.32,2555.22 C1196.88,2552.20 1165.98,2545.77 1150.53,2542.37 C1135.28,2538.61 1105.00,2530.76 1089.97,2526.66 C1075.11,2521.98 1045.39,2512.21 1030.53,2507.13 C1015.69,2501.64 986.22,2490.35 971.59,2484.54 C957.23,2478.42 933.55,2468.16 914.69,2459.10 C900.69,2452.05 872.76,2437.56 858.82,2430.11 C845.09,2422.34 817.94,2406.54 804.52,2398.51 C791.33,2390.28 765.48,2372.82 752.59,2363.95 C739.83,2354.69 714.49,2335.85 701.93,2326.26 C689.70,2316.46 661.40,2293.26 653.76,2286.51 C642.23,2275.98 619.34,2254.57 607.98,2243.68 C596.82,2232.46 574.87,2209.83 564.07,2198.43 C553.64,2186.85 533.24,2163.31 523.26,2151.34 C513.51,2139.02 494.24,2114.07 484.73,2101.44 C475.56,2088.64 457.62,2062.94 448.85,2050.02 C443.25,2041.50 424.32,2010.19 416.35,1996.69 C408.65,1982.89 393.60,1955.13 386.25,1941.17 C379.31,1927.16 365.71,1899.09 359.44,1884.86 C353.40,1870.43 341.62,1841.31 335.89,1826.62 C330.50,1811.76 320.13,1782.04 315.14,1767.18 C308.86,1747.23 302.07,1722.33 298.06,1707.24 C294.39,1691.94 287.41,1661.16 284.09,1645.69 C281.17,1630.26 275.73,1599.45 273.21,1584.08 C271.30,1568.62 267.84,1537.52 266.29,1521.89 C265.11,1506.12 263.15,1474.62 262.36,1458.90 C261.95,1443.30 261.45,1417.49 261.86,1396.58 C262.45,1380.92 264.04,1349.48 265.02,1333.71 C266.38,1317.99 269.47,1286.74 271.21,1271.19 C273.21,1255.77 278.35,1225.00 281.07,1209.60 C284.19,1194.14 290.81,1163.27 294.31,1147.85 C298.15,1132.66 307.49,1097.28 310.46,1087.52 C315.24,1072.66 325.21,1042.94 330.40,1028.09 C335.97,1013.28 347.43,983.91 353.32,969.35 C359.51,955.05 372.46,926.71 379.21,912.67 C386.35,898.69 401.04,870.79 408.58,856.89 C416.42,843.23 432.35,816.24 440.45,802.89 C445.87,794.26 466.49,764.03 475.46,751.18 C484.82,738.44 503.82,713.22 513.46,700.74 C523.32,688.60 543.21,664.57 553.55,652.95 C564.16,641.46 585.76,618.65 596.74,607.34 C608.02,596.26 630.74,574.48 642.19,563.77 C657.72,549.77 677.56,533.25 689.61,523.34 C702.01,513.64 727.10,494.50 739.80,485.06 C752.62,475.99 778.39,458.25 791.33,449.57 C804.60,441.40 831.44,425.34 845.01,417.44 C858.88,409.82 886.71,394.94 900.68,387.69 C914.71,380.84 937.97,369.66 957.16,361.35 C971.66,355.38 1000.91,343.76 1015.67,338.11 C1030.53,332.82 1060.25,322.65 1075.11,317.76 C1089.97,313.18 1120.09,305.08 1135.23,301.15 C1150.59,297.57 1181.42,290.76 1196.89,287.54 C1212.31,284.72 1248.37,278.52 1258.48,277.17 C1273.98,275.35 1305.16,272.07 1320.83,270.62 C1336.62,269.54 1368.09,267.76 1383.78,267.07 C1391.58,266.87 1407.16,266.56 1414.94,266.46 Z" 
fill="none" stroke="black" 
stroke-width="30.00" stroke-opacity="1.00" stroke-linejoin="round"/>


<path d="M1377.39,2561.90 L1415.26,2391.14 L1453.35,2561.90" 
fill="black" stroke="black" stroke-width="3.00" stroke-opacity="1.00" stroke-linejoin="miter"/>
<path d="M407.70,1958.20 L574.52,1905.61 L445.68,2023.98" 
fill="black" stroke="black" stroke-width="3.00" stroke-opacity="1.00" stroke-linejoin="miter"/>
<path d="M2423.04,1958.20 L2256.22,1905.61 L2385.06,2023.98" 
fill="black" stroke="black" stroke-width="3.00" stroke-opacity="1.00" stroke-linejoin="miter"/>
<path d="M445.68,816.57 L574.63,934.75 L407.70,882.36" 
fill="black" stroke="black" stroke-width="3.00" stroke-opacity="1.00" stroke-linejoin="miter"/>
<path d="M2385.06,816.57 L2256.11,934.75 L2423.04,882.36" 
fill="black" stroke="black" stroke-width="3.00" stroke-opacity="1.00" stroke-linejoin="miter"/>
<path d="M811.79,2389.93 L929.97,2260.98 L877.58,2427.91" 
fill="black" stroke="black" stroke-width="3.00" stroke-opacity="1.00" stroke-linejoin="miter"/>
<path d="M273.87,1382.26 L444.63,1420.13 L273.87,1458.22" 
fill="black" stroke="black" stroke-width="3.00" stroke-opacity="1.00" stroke-linejoin="miter"/>
<path d="M2019.21,2389.93 L1901.03,2260.98 L1953.42,2427.91" 
fill="black" stroke="black" stroke-width="3.00" stroke-opacity="1.00" stroke-linejoin="miter"/>
<path d="M877.58,412.57 L930.16,579.39 L811.79,450.56" 
fill="black" stroke="black" stroke-width="3.00" stroke-opacity="1.00" stroke-linejoin="miter"/>
<path d="M2557.12,1382.26 L2386.36,1420.13 L2557.12,1458.22" 
fill="black" stroke="black" stroke-width="3.00" stroke-opacity="1.00" stroke-linejoin="miter"/>
<path d="M2019.21,450.56 L1901.03,579.51 L1953.42,412.57" 
fill="black" stroke="black" stroke-width="3.00" stroke-opacity="1.00" stroke-linejoin="miter"/>

<path d="M1416.72,779.86 
C1423.14,779.32 1436.76,778.04 1443.75,776.54 
C1450.01,775.17 1465.83,769.82 1469.87,767.09 C1472.87,765.02 1477.76,759.55 1479.84,756.12 C1481.69,753.01 1484.10,746.74 1484.94,743.88 C1486.95,736.91 1487.86,723.60 1487.52,714.91 C1486.32,694.14 1483.94,666.86 1481.93,653.84 C1478.82,636.40 1462.71,564.02 1456.21,535.23 C1450.21,505.48 1438.25,443.06 1432.28,410.39 C1426.58,375.17 1418.61,325.34 1416.34,310.74 C1411.36,338.52 1400.11,400.84 1393.83,435.38 C1388.02,466.38 1376.25,527.04 1369.78,556.24 C1366.46,570.85 1359.67,601.05 1356.19,616.65 C1352.89,632.15 1347.09,663.22 1345.77,677.53 C1345.18,684.49 1344.10,699.21 1343.60,706.95 C1343.03,717.68 1343.13,730.99 1344.15,736.98 C1344.75,740.39 1346.60,746.74 1347.80,749.93 C1349.00,753.01 1352.93,759.55 1355.23,762.16 C1357.82,765.02 1363.02,768.58 1366.67,770.20 C1372.42,772.72 1386.27,776.60 1393.84,777.83 C1398.05,778.50 1411.39,779.66 1413.97,779.86" 
fill="black" stroke="black" 
stroke-width="10.00" stroke-opacity="1.00" stroke-linejoin="miter"/>

<path d="M1395.68,778.72 C1395.68,778.72 1395.19,803.10 1395.19,803.10 C1395.19,803.10 1357.58,815.98 1357.58,815.98 C1363.95,845.47 1383.31,933.12 1383.98,936.41 C1386.86,951.69 1390.99,984.05 1392.56,1000.96 C1393.17,1008.28 1394.30,1022.85 1394.81,1030.11 C1395.35,1042.12 1394.39,1075.10 1393.74,1089.59 C1392.76,1106.18 1390.59,1137.80 1389.40,1152.82 C1387.86,1168.54 1383.04,1199.57 1380.09,1214.80 C1376.71,1230.16 1369.62,1260.82 1365.92,1276.11 C1361.91,1291.28 1352.69,1324.44 1348.72,1336.83 C1342.69,1354.41 1336.11,1372.61 1334.84,1376.13 C1334.84,1376.13 1389.67,1417.77 1389.67,1417.77 C1389.67,1417.77 1415.40,1482.23 1415.40,1482.23 C1415.40,1482.23 1441.02,1417.77 1441.02,1417.77 C1441.02,1417.77 1495.86,1376.12 1495.86,1376.12 C1491.17,1363.11 1480.50,1332.29 1475.89,1317.24 C1471.77,1302.77 1463.86,1272.18 1459.98,1256.67 C1456.53,1241.56 1449.82,1210.96 1446.99,1195.82 C1444.44,1180.66 1441.33,1153.61 1439.73,1133.71 C1438.68,1118.08 1436.84,1086.30 1436.05,1070.16 C1435.29,1052.24 1435.53,1033.46 1437.18,1012.19 C1437.84,1004.54 1439.33,988.35 1440.16,979.82 C1442.65,959.71 1447.29,932.96 1450.64,918.31 C1457.85,885.89 1469.09,834.73 1473.12,815.98 C1473.12,815.98 1435.50,803.10 1435.50,803.10 C1435.50,803.10 1435.02,778.72 1435.02,778.72" 
fill="black" stroke="black" 
stroke-width="10.00" stroke-opacity="1.00" stroke-linejoin="miter"/>
</g>
</svg>
